<mxfile host="65bd71144e">
    <diagram id="2YfB79rKiRq59TDp_ouq" name="Page-1">
        <mxGraphModel dx="1166" dy="860" grid="1" gridSize="10" guides="1" tooltips="1" connect="1" arrows="1" fold="1" page="1" pageScale="1" pageWidth="850" pageHeight="1100" math="0" shadow="0">
            <root>
                <mxCell id="0"/>
                <mxCell id="1" parent="0"/>
                <mxCell id="mHElfYdnMq4JmdVnA_2Z-1" value="" style="shape=image;html=1;verticalAlign=top;verticalLabelPosition=bottom;labelBackgroundColor=#ffffff;imageAspect=0;aspect=fixed;image=https://cdn4.iconfinder.com/data/icons/free-ui-set/200/line_3-05-128.png" parent="1" vertex="1">
                    <mxGeometry x="121" y="160" width="128" height="128" as="geometry"/>
                </mxCell>
                <mxCell id="mHElfYdnMq4JmdVnA_2Z-2" value="" style="shape=image;html=1;verticalAlign=top;verticalLabelPosition=bottom;labelBackgroundColor=#ffffff;imageAspect=0;aspect=fixed;image=https://cdn4.iconfinder.com/data/icons/free-ui-set/200/line_3-05-128.png" parent="1" vertex="1">
                    <mxGeometry x="211" y="160" width="128" height="128" as="geometry"/>
                </mxCell>
                <mxCell id="mHElfYdnMq4JmdVnA_2Z-4" value="" style="group" parent="1" vertex="1" connectable="0">
                    <mxGeometry x="371" y="200.38" width="60" height="47.25" as="geometry"/>
                </mxCell>
                <mxCell id="mHElfYdnMq4JmdVnA_2Z-5" value="=" style="text;html=1;strokeColor=none;fillColor=none;align=center;verticalAlign=middle;whiteSpace=wrap;rounded=0;fontSize=32;" parent="mHElfYdnMq4JmdVnA_2Z-4" vertex="1">
                    <mxGeometry y="17.25" width="60" height="30" as="geometry"/>
                </mxCell>
                <mxCell id="mHElfYdnMq4JmdVnA_2Z-6" value="&amp;lt;" style="text;html=1;strokeColor=none;fillColor=none;align=center;verticalAlign=middle;whiteSpace=wrap;rounded=0;fontSize=32;" parent="mHElfYdnMq4JmdVnA_2Z-4" vertex="1">
                    <mxGeometry width="60" height="30" as="geometry"/>
                </mxCell>
                <mxCell id="mHElfYdnMq4JmdVnA_2Z-17" value="Trip count" style="text;html=1;strokeColor=none;fillColor=none;align=center;verticalAlign=middle;whiteSpace=wrap;rounded=0;" parent="1" vertex="1">
                    <mxGeometry x="201" y="270" width="60" height="30" as="geometry"/>
                </mxCell>
                <mxCell id="mHElfYdnMq4JmdVnA_2Z-18" value="Constraint 14#" style="text;html=1;strokeColor=none;fillColor=none;align=left;verticalAlign=middle;whiteSpace=wrap;rounded=0;fontSize=32;" parent="1" vertex="1">
                    <mxGeometry x="108" y="80" width="247.25" height="30" as="geometry"/>
                </mxCell>
                <mxCell id="mHElfYdnMq4JmdVnA_2Z-19" value="Factory vehicle trip count" style="text;html=1;strokeColor=none;fillColor=none;align=left;verticalAlign=middle;whiteSpace=wrap;rounded=0;fontSize=16;" parent="1" vertex="1">
                    <mxGeometry x="108" y="112" width="387.25" height="30" as="geometry"/>
                </mxCell>
                <mxCell id="mHElfYdnMq4JmdVnA_2Z-23" value="" style="group" parent="1" vertex="1" connectable="0">
                    <mxGeometry x="448.5" y="190" width="110" height="75" as="geometry"/>
                </mxCell>
                <mxCell id="mHElfYdnMq4JmdVnA_2Z-21" value="Work hours" style="text;html=1;strokeColor=none;fillColor=none;align=center;verticalAlign=middle;whiteSpace=wrap;rounded=0;" parent="mHElfYdnMq4JmdVnA_2Z-23" vertex="1">
                    <mxGeometry y="45" width="110" height="30" as="geometry"/>
                </mxCell>
                <mxCell id="mHElfYdnMq4JmdVnA_2Z-25" value="" style="sketch=0;aspect=fixed;html=1;points=[];align=center;image;fontSize=12;image=img/lib/mscae/Clock.svg;" parent="mHElfYdnMq4JmdVnA_2Z-23" vertex="1">
                    <mxGeometry x="30" y="0.37999999999999545" width="50" height="50" as="geometry"/>
                </mxCell>
                <mxCell id="mHElfYdnMq4JmdVnA_2Z-27" value="&lt;font style=&quot;font-size: 18px;&quot;&gt;X&lt;/font&gt;" style="text;html=1;strokeColor=none;fillColor=none;align=center;verticalAlign=middle;whiteSpace=wrap;rounded=0;" parent="1" vertex="1">
                    <mxGeometry x="533" y="204.5" width="60" height="30" as="geometry"/>
                </mxCell>
                <mxCell id="mHElfYdnMq4JmdVnA_2Z-28" value="" style="verticalLabelPosition=bottom;verticalAlign=top;html=1;shadow=0;dashed=0;strokeWidth=1;shape=mxgraph.android.switch_off;fillColor=#E6E6E6;sketch=0;fontSize=18;" parent="1" vertex="1">
                    <mxGeometry x="601" y="209.5" width="80" height="20" as="geometry"/>
                </mxCell>
                <mxCell id="H5XKZzr8rbu4U8KisFy5-3" value="" style="group" parent="1" vertex="1" connectable="0">
                    <mxGeometry x="373" y="450.38" width="60" height="47.25" as="geometry"/>
                </mxCell>
                <mxCell id="H5XKZzr8rbu4U8KisFy5-4" value="=" style="text;html=1;strokeColor=none;fillColor=none;align=center;verticalAlign=middle;whiteSpace=wrap;rounded=0;fontSize=32;" parent="H5XKZzr8rbu4U8KisFy5-3" vertex="1">
                    <mxGeometry y="17.25" width="60" height="30" as="geometry"/>
                </mxCell>
                <mxCell id="H5XKZzr8rbu4U8KisFy5-5" value="&amp;lt;" style="text;html=1;strokeColor=none;fillColor=none;align=center;verticalAlign=middle;whiteSpace=wrap;rounded=0;fontSize=32;" parent="H5XKZzr8rbu4U8KisFy5-3" vertex="1">
                    <mxGeometry width="60" height="30" as="geometry"/>
                </mxCell>
                <mxCell id="H5XKZzr8rbu4U8KisFy5-7" value="Constraint 15-17#" style="text;html=1;strokeColor=none;fillColor=none;align=left;verticalAlign=middle;whiteSpace=wrap;rounded=0;fontSize=32;" parent="1" vertex="1">
                    <mxGeometry x="110" y="330" width="260" height="30" as="geometry"/>
                </mxCell>
                <mxCell id="H5XKZzr8rbu4U8KisFy5-8" value="Factory vehicle trip count" style="text;html=1;strokeColor=none;fillColor=none;align=left;verticalAlign=middle;whiteSpace=wrap;rounded=0;fontSize=16;" parent="1" vertex="1">
                    <mxGeometry x="110" y="362" width="387.25" height="30" as="geometry"/>
                </mxCell>
                <mxCell id="H5XKZzr8rbu4U8KisFy5-9" value="" style="group" parent="1" vertex="1" connectable="0">
                    <mxGeometry x="450.5" y="440" width="110" height="75" as="geometry"/>
                </mxCell>
                <mxCell id="H5XKZzr8rbu4U8KisFy5-10" value="Work hours" style="text;html=1;strokeColor=none;fillColor=none;align=center;verticalAlign=middle;whiteSpace=wrap;rounded=0;" parent="H5XKZzr8rbu4U8KisFy5-9" vertex="1">
                    <mxGeometry y="45" width="110" height="30" as="geometry"/>
                </mxCell>
                <mxCell id="H5XKZzr8rbu4U8KisFy5-11" value="" style="sketch=0;aspect=fixed;html=1;points=[];align=center;image;fontSize=12;image=img/lib/mscae/Clock.svg;" parent="H5XKZzr8rbu4U8KisFy5-9" vertex="1">
                    <mxGeometry x="30" y="0.37999999999999545" width="50" height="50" as="geometry"/>
                </mxCell>
                <mxCell id="H5XKZzr8rbu4U8KisFy5-15" value="" style="html=1;verticalLabelPosition=bottom;align=center;labelBackgroundColor=#ffffff;verticalAlign=top;strokeWidth=2;strokeColor=#0080F0;shadow=0;dashed=0;shape=mxgraph.ios7.icons.stopwatch;" parent="1" vertex="1">
                    <mxGeometry x="253" y="431.29999999999995" width="27" height="28.2" as="geometry"/>
                </mxCell>
                <mxCell id="H5XKZzr8rbu4U8KisFy5-19" value="" style="group" parent="1" vertex="1" connectable="0">
                    <mxGeometry x="373" y="726.38" width="60" height="47.25" as="geometry"/>
                </mxCell>
                <mxCell id="H5XKZzr8rbu4U8KisFy5-20" value="=" style="text;html=1;strokeColor=none;fillColor=none;align=center;verticalAlign=middle;whiteSpace=wrap;rounded=0;fontSize=32;" parent="H5XKZzr8rbu4U8KisFy5-19" vertex="1">
                    <mxGeometry y="17.25" width="60" height="30" as="geometry"/>
                </mxCell>
                <mxCell id="H5XKZzr8rbu4U8KisFy5-21" value="&amp;lt;" style="text;html=1;strokeColor=none;fillColor=none;align=center;verticalAlign=middle;whiteSpace=wrap;rounded=0;fontSize=32;" parent="H5XKZzr8rbu4U8KisFy5-19" vertex="1">
                    <mxGeometry width="60" height="30" as="geometry"/>
                </mxCell>
                <mxCell id="H5XKZzr8rbu4U8KisFy5-22" value="Constraint 18#" style="text;html=1;strokeColor=none;fillColor=none;align=left;verticalAlign=middle;whiteSpace=wrap;rounded=0;fontSize=32;" parent="1" vertex="1">
                    <mxGeometry x="110" y="606" width="260" height="30" as="geometry"/>
                </mxCell>
                <mxCell id="H5XKZzr8rbu4U8KisFy5-23" value="Factory vehicle trip count" style="text;html=1;strokeColor=none;fillColor=none;align=left;verticalAlign=middle;whiteSpace=wrap;rounded=0;fontSize=16;" parent="1" vertex="1">
                    <mxGeometry x="110" y="638" width="387.25" height="30" as="geometry"/>
                </mxCell>
                <mxCell id="H5XKZzr8rbu4U8KisFy5-24" value="" style="group" parent="1" vertex="1" connectable="0">
                    <mxGeometry x="450.5" y="716" width="110" height="75" as="geometry"/>
                </mxCell>
                <mxCell id="H5XKZzr8rbu4U8KisFy5-25" value="Work hours" style="text;html=1;strokeColor=none;fillColor=none;align=center;verticalAlign=middle;whiteSpace=wrap;rounded=0;" parent="H5XKZzr8rbu4U8KisFy5-24" vertex="1">
                    <mxGeometry y="45" width="110" height="30" as="geometry"/>
                </mxCell>
                <mxCell id="H5XKZzr8rbu4U8KisFy5-26" value="" style="sketch=0;aspect=fixed;html=1;points=[];align=center;image;fontSize=12;image=img/lib/mscae/Clock.svg;" parent="H5XKZzr8rbu4U8KisFy5-24" vertex="1">
                    <mxGeometry x="30" y="0.37999999999999545" width="50" height="50" as="geometry"/>
                </mxCell>
                <mxCell id="H5XKZzr8rbu4U8KisFy5-27" value="" style="html=1;verticalLabelPosition=bottom;align=center;labelBackgroundColor=#ffffff;verticalAlign=top;strokeWidth=2;strokeColor=#0080F0;shadow=0;dashed=0;shape=mxgraph.ios7.icons.stopwatch;" parent="1" vertex="1">
                    <mxGeometry x="253" y="707.3" width="31.31" height="32.7" as="geometry"/>
                </mxCell>
                <mxCell id="H5XKZzr8rbu4U8KisFy5-30" value="&lt;font style=&quot;font-size: 18px;&quot;&gt;X&lt;/font&gt;" style="text;html=1;strokeColor=none;fillColor=none;align=center;verticalAlign=middle;whiteSpace=wrap;rounded=0;" parent="1" vertex="1">
                    <mxGeometry x="547" y="730.5" width="60" height="30" as="geometry"/>
                </mxCell>
                <mxCell id="H5XKZzr8rbu4U8KisFy5-31" value="" style="group" parent="1" vertex="1" connectable="0">
                    <mxGeometry x="635" y="847.25" width="141.5" height="161.5" as="geometry"/>
                </mxCell>
                <mxCell id="H5XKZzr8rbu4U8KisFy5-32" value="" style="rounded=0;whiteSpace=wrap;html=1;" parent="H5XKZzr8rbu4U8KisFy5-31" vertex="1">
                    <mxGeometry x="17" width="15.25" height="40" as="geometry"/>
                </mxCell>
                <mxCell id="H5XKZzr8rbu4U8KisFy5-33" value="Factory" style="text;html=1;strokeColor=none;fillColor=none;align=center;verticalAlign=middle;whiteSpace=wrap;rounded=0;fontSize=16;" parent="H5XKZzr8rbu4U8KisFy5-31" vertex="1">
                    <mxGeometry y="122" width="141.5" height="30" as="geometry"/>
                </mxCell>
                <mxCell id="H5XKZzr8rbu4U8KisFy5-34" value="" style="shape=card;whiteSpace=wrap;html=1;" parent="H5XKZzr8rbu4U8KisFy5-31" vertex="1">
                    <mxGeometry x="11.25" y="12" width="114.5" height="110" as="geometry"/>
                </mxCell>
                <mxCell id="H5XKZzr8rbu4U8KisFy5-35" value="" style="whiteSpace=wrap;html=1;aspect=fixed;" parent="H5XKZzr8rbu4U8KisFy5-31" vertex="1">
                    <mxGeometry x="78.75" y="62" width="20" height="20" as="geometry"/>
                </mxCell>
                <mxCell id="H5XKZzr8rbu4U8KisFy5-36" value="" style="whiteSpace=wrap;html=1;aspect=fixed;" parent="H5XKZzr8rbu4U8KisFy5-31" vertex="1">
                    <mxGeometry x="42" y="32" width="20" height="20" as="geometry"/>
                </mxCell>
                <mxCell id="H5XKZzr8rbu4U8KisFy5-37" value="" style="whiteSpace=wrap;html=1;aspect=fixed;" parent="H5XKZzr8rbu4U8KisFy5-31" vertex="1">
                    <mxGeometry x="78.75" y="32" width="20" height="20" as="geometry"/>
                </mxCell>
                <mxCell id="H5XKZzr8rbu4U8KisFy5-38" value="" style="whiteSpace=wrap;html=1;aspect=fixed;" parent="H5XKZzr8rbu4U8KisFy5-31" vertex="1">
                    <mxGeometry x="42.25" y="62" width="20" height="20" as="geometry"/>
                </mxCell>
                <mxCell id="H5XKZzr8rbu4U8KisFy5-39" value="" style="rounded=0;whiteSpace=wrap;html=1;" parent="H5XKZzr8rbu4U8KisFy5-31" vertex="1">
                    <mxGeometry x="60.75" y="92" width="20" height="30" as="geometry"/>
                </mxCell>
                <mxCell id="H5XKZzr8rbu4U8KisFy5-52" value="" style="group" parent="1" vertex="1" connectable="0">
                    <mxGeometry x="607" y="640" width="200.5" height="180" as="geometry"/>
                </mxCell>
                <mxCell id="H5XKZzr8rbu4U8KisFy5-41" value="" style="rounded=0;whiteSpace=wrap;html=1;" parent="H5XKZzr8rbu4U8KisFy5-52" vertex="1">
                    <mxGeometry x="8.5" y="10" width="16" height="40" as="geometry"/>
                </mxCell>
                <mxCell id="H5XKZzr8rbu4U8KisFy5-42" value="" style="triangle;whiteSpace=wrap;html=1;labelBackgroundColor=#006600;fontColor=#006600;direction=north;" parent="H5XKZzr8rbu4U8KisFy5-52" vertex="1">
                    <mxGeometry width="200.5" height="42" as="geometry"/>
                </mxCell>
                <mxCell id="H5XKZzr8rbu4U8KisFy5-43" value="" style="rounded=0;whiteSpace=wrap;html=1;fontSize=16;" parent="H5XKZzr8rbu4U8KisFy5-52" vertex="1">
                    <mxGeometry y="42" width="200.5" height="100" as="geometry"/>
                </mxCell>
                <mxCell id="H5XKZzr8rbu4U8KisFy5-44" value="" style="html=1;whiteSpace=wrap;shape=isoCube2;backgroundOutline=1;isoAngle=15;" parent="H5XKZzr8rbu4U8KisFy5-52" vertex="1">
                    <mxGeometry x="36" y="77" width="27" height="30" as="geometry"/>
                </mxCell>
                <mxCell id="H5XKZzr8rbu4U8KisFy5-45" value="" style="html=1;whiteSpace=wrap;shape=isoCube2;backgroundOutline=1;isoAngle=15;" parent="H5XKZzr8rbu4U8KisFy5-52" vertex="1">
                    <mxGeometry x="16" y="87" width="27" height="30" as="geometry"/>
                </mxCell>
                <mxCell id="H5XKZzr8rbu4U8KisFy5-46" value="" style="html=1;whiteSpace=wrap;shape=isoCube2;backgroundOutline=1;isoAngle=15;" parent="H5XKZzr8rbu4U8KisFy5-52" vertex="1">
                    <mxGeometry x="46" y="87" width="27" height="30" as="geometry"/>
                </mxCell>
                <mxCell id="H5XKZzr8rbu4U8KisFy5-47" value="" style="html=1;whiteSpace=wrap;shape=isoCube2;backgroundOutline=1;isoAngle=15;" parent="H5XKZzr8rbu4U8KisFy5-52" vertex="1">
                    <mxGeometry x="76" y="87" width="27" height="30" as="geometry"/>
                </mxCell>
                <mxCell id="H5XKZzr8rbu4U8KisFy5-48" value="Waste" style="text;html=1;strokeColor=none;fillColor=none;align=center;verticalAlign=middle;whiteSpace=wrap;rounded=0;" parent="H5XKZzr8rbu4U8KisFy5-52" vertex="1">
                    <mxGeometry x="24.5" y="110" width="70" height="30" as="geometry"/>
                </mxCell>
                <mxCell id="H5XKZzr8rbu4U8KisFy5-49" value="Collection Center" style="text;html=1;strokeColor=none;fillColor=none;align=center;verticalAlign=middle;whiteSpace=wrap;rounded=0;fontSize=16;" parent="H5XKZzr8rbu4U8KisFy5-52" vertex="1">
                    <mxGeometry x="36" y="150" width="141.5" height="30" as="geometry"/>
                </mxCell>
                <mxCell id="H5XKZzr8rbu4U8KisFy5-50" value="%" style="text;html=1;strokeColor=none;fillColor=none;align=center;verticalAlign=middle;whiteSpace=wrap;rounded=0;fontSize=32;" parent="H5XKZzr8rbu4U8KisFy5-52" vertex="1">
                    <mxGeometry x="126.88" y="87" width="60" height="30" as="geometry"/>
                </mxCell>
                <mxCell id="H5XKZzr8rbu4U8KisFy5-51" value="" style="shape=image;html=1;verticalAlign=top;verticalLabelPosition=bottom;labelBackgroundColor=#ffffff;imageAspect=0;aspect=fixed;image=https://cdn0.iconfinder.com/data/icons/phosphor-duotone-vol-3/256/recycle-duotone-128.png;fontColor=#006600;" parent="H5XKZzr8rbu4U8KisFy5-52" vertex="1">
                    <mxGeometry x="147.75" y="50" width="20" height="20" as="geometry"/>
                </mxCell>
                <mxCell id="H5XKZzr8rbu4U8KisFy5-53" value="" style="endArrow=classic;html=1;rounded=0;" parent="1" edge="1">
                    <mxGeometry width="50" height="50" relative="1" as="geometry">
                        <mxPoint x="707" y="823" as="sourcePoint"/>
                        <mxPoint x="707" y="843" as="targetPoint"/>
                    </mxGeometry>
                </mxCell>
                <mxCell id="H5XKZzr8rbu4U8KisFy5-54" value="" style="verticalLabelPosition=bottom;verticalAlign=top;html=1;shadow=0;dashed=0;strokeWidth=1;shape=mxgraph.android.switch_off;fillColor=#E6E6E6;sketch=0;" parent="1" vertex="1">
                    <mxGeometry x="719.5" y="823" width="80" height="20" as="geometry"/>
                </mxCell>
                <mxCell id="H5XKZzr8rbu4U8KisFy5-69" value="" style="shape=image;html=1;verticalAlign=top;verticalLabelPosition=bottom;labelBackgroundColor=#ffffff;imageAspect=0;aspect=fixed;image=https://cdn4.iconfinder.com/data/icons/free-ui-set/200/line_3-05-128.png" parent="1" vertex="1">
                    <mxGeometry x="256.63" y="413.5" width="128" height="128" as="geometry"/>
                </mxCell>
                <mxCell id="H5XKZzr8rbu4U8KisFy5-70" value="" style="shape=image;html=1;verticalAlign=top;verticalLabelPosition=bottom;labelBackgroundColor=#ffffff;imageAspect=0;aspect=fixed;image=https://cdn4.iconfinder.com/data/icons/free-ui-set/200/line_3-05-128.png" parent="1" vertex="1">
                    <mxGeometry x="135.63" y="686.01" width="128" height="128" as="geometry"/>
                </mxCell>
                <mxCell id="2" value="Supplier to factory" style="text;html=1;strokeColor=none;fillColor=none;align=center;verticalAlign=middle;whiteSpace=wrap;rounded=0;" vertex="1" parent="1">
                    <mxGeometry x="570" y="247.63" width="130" height="30" as="geometry"/>
                </mxCell>
            </root>
        </mxGraphModel>
    </diagram>
</mxfile>